<?xml version="1.0" encoding="UTF-8" standalone="no"?>
<svg
   xmlns:dc="http://purl.org/dc/elements/1.1/"
   xmlns:cc="http://creativecommons.org/ns#"
   xmlns:rdf="http://www.w3.org/1999/02/22-rdf-syntax-ns#"
   xmlns:svg="http://www.w3.org/2000/svg"
   xmlns="http://www.w3.org/2000/svg"
   xmlns:sodipodi="http://sodipodi.sourceforge.net/DTD/sodipodi-0.dtd"
   xmlns:inkscape="http://www.inkscape.org/namespaces/inkscape"
   version="1.0"
   width="976.000000pt"
   height="256.000000pt"
   viewBox="0 0 976.000000 256.000000"
   preserveAspectRatio="xMidYMid meet"
   id="svg70"
   sodipodi:docname="X-SENSING.Inc.Logo1.svg"
   inkscape:version="1.0.2-2 (e86c870879, 2021-01-15)">
  <metadata
     id="metadata76">
    <rdf:RDF>
      <cc:Work
         rdf:about="">
        <dc:format>image/svg+xml</dc:format>
        <dc:type
           rdf:resource="http://purl.org/dc/dcmitype/StillImage" />
        <dc:title />
      </cc:Work>
    </rdf:RDF>
  </metadata>
  <defs
     id="defs74" />
  <sodipodi:namedview
     pagecolor="#ffffff"
     bordercolor="#666666"
     borderopacity="1"
     objecttolerance="10"
     gridtolerance="10"
     guidetolerance="10"
     inkscape:pageopacity="0"
     inkscape:pageshadow="2"
     inkscape:window-width="1722"
     inkscape:window-height="922"
     id="namedview72"
     showgrid="false"
     inkscape:zoom="0.95594262"
     inkscape:cx="162.63002"
     inkscape:cy="170.66667"
     inkscape:window-x="69"
     inkscape:window-y="35"
     inkscape:window-maximized="0"
     inkscape:current-layer="layer5"
     inkscape:document-rotation="0" />
  <g
     inkscape:groupmode="layer"
     id="layer5"
     inkscape:label="under-log"
     style="display:inline">
    <rect
       style="fill:#fafafa;stroke-width:0.0781358"
       id="rect919"
       width="92.578781"
       height="112.97749"
       x="32.167198"
       y="74.533768" />
  </g>
  <g
     transform="matrix(0.1,0,0,-0.1,0,256)"
     fill="#000000"
     stroke="none"
     id="g68" />
  <g
     inkscape:groupmode="layer"
     id="layer4"
     inkscape:label="original"
     style="display:inline">
    <path
       d="m 134.87095,4.3077558 c -2.5,0.5 -9.9,1.8 -16.5,3 -6.6,1.1 -19.600002,3.4000002 -28.999998,5.0000002 -9.3,1.6 -21,3.6 -26,4.5 -14.8,2.6 -60.6000001,10.5 -61.2000001,10.5 -0.2,0 -0.3,46.3 -0.3,102.900004 v 103 l 4.8,0.6 c 4.8000001,0.6 12.2000001,1.7 23.4000001,3.5 3.5,0.5 11.3,1.7 17.3,2.6 19.4,2.8 42.7,6.2 63.499998,9.4 7.4,1.1 16.9,2.5 21,3.1 4.1,0.5 8.3,1.2 9.3,1.5 1.6,0.5 1.7,-5.9 1.7,-125 0,-119.0000042 -0.1,-125.6000042 -1.7,-125.5000042 -1,0.1 -3.8,0.5 -6.3,0.9 z m -64.899998,97.5000042 9.2,18.4 2.7,-5.8 c 1.5,-3.2 4.8,-9.4 7.3,-13.7 2.5,-4.300004 5.6,-9.900004 7,-12.400004 l 2.499996,-4.5 10.600002,-0.3 c 5.8,-0.1 10.6,0.1 10.6,0.5 0,0.5 -1.1,2.5 -2.5,4.4 -1.3,2 -5.5,8.8 -9.3,15.000004 -3.8,6.3 -9.200002,15 -11.899998,19.4 l -4.9,8 3.3,5.5 c 3.899996,6.5 8.699998,14.3 18.699998,30.5 l 7.3,12 -11,0.3 c -12.299998,0.3 -10.900002,1 -15.699998,-7.8 -1.4,-2.5 -4.4,-7.9 -6.7,-12 -2.3,-4.1 -5.2,-9.7 -6.6,-12.4 l -2.4,-4.8 -1.5,2.8 c -0.8,1.6 -3.4,6.5 -5.8,10.9 -2.4,4.4 -6.2,11.4 -8.5,15.5 l -4,7.5 -11.8,0.3 -11.8,0.3 4.9,-7.3 c 14,-20.8 26.2,-41.1 25.3,-42.2 -0.5,-0.6 -2,-3.1 -3.3,-5.6 -1.4,-2.5 -6.2,-10.8 -10.8,-18.5 -4.6,-7.700004 -9.4,-15.900004 -10.8,-18.300004 l -2.4,-4.2 h 11.5 11.6 z"
       id="path44"
       style="fill:#980726;fill-opacity:1;stroke:#ffffff;stroke-width:0.09975;stroke-miterlimit:4;stroke-dasharray:none;stroke-opacity:1" />
    <path
       d="m 213.17095,88.707756 c -5.9,1.9 -10.1,5.2 -13.4,10.4 -2.4,3.900004 -2.9,5.600004 -2.9,11.100004 0,11 3.4,15.2 20.5,25.3 24.3,14.3 25.5,15.5 25.5,24.3 0,19.8 -33.4,19 -40.9,-1.1 -1.2,-3 -2.1,-6.4 -2.1,-7.4 0,-1.1 -0.7,-2 -1.5,-2 -1.3,0 -1.5,2.3 -1.5,15 0,12.7 0.2,15 1.5,15 0.8,0 1.5,-0.9 1.5,-2 0,-3.4 2.7,-3.5 14.3,-0.6 12.6,3.2 18.1,3 26.4,-0.9 5.1,-2.3 10.3,-8 12.5,-13.5 1.7,-4.4 1.1,-12.7 -1.2,-17.5 -2.9,-6 -8,-10.2 -21,-17 -11.9,-6.3 -19.2,-11.5 -22.4,-15.8 -5.9,-8 2.3,-19.700004 13.9,-19.700004 11.2,0 21.6,9.100004 23.1,20.100004 0.4,3.2 1.1,4.9 2,4.9 1.1,0 1.4,-3 1.4,-15 0,-12.700004 -0.2,-15.000004 -1.5,-15.000004 -0.8,0 -1.5,0.6 -1.5,1.4 0,0.7 -0.7,1.9 -1.6,2.7 -1.3,1 -2.7,0.9 -8.2,-1 -8.3,-2.9 -17.4,-3.5 -22.9,-1.7 z"
       id="path46"
       style="fill:#fafafa;fill-opacity:1;stroke:#ffffff;stroke-width:0.09975;stroke-miterlimit:4;stroke-dasharray:none;stroke-opacity:1" />
    <path
       d="m 462.17095,89.407756 c -8.4,3.2 -15.3,12.700004 -15.3,20.900004 0,4.3 2.3,10 5.7,14 3.2,3.7 8.7,7.4 25.3,17 9.2,5.4 11.7,7.5 14.1,12.2 2.5,4.9 2.4,8.8 -0.3,12.8 -3.6,5.2 -6.9,7.1 -13.4,7.7 -4.5,0.4 -7.2,0 -11.6,-1.7 -8.1,-3 -12.3,-7.6 -14.9,-16.1 -1.2,-3.8 -2.5,-6.9 -3,-6.9 -0.5,0 -0.9,6.7 -0.9,15 0,8.2 0.3,15 0.8,15 0.4,0 1.2,-1 1.7,-2.3 1.4,-3.1 4.4,-3.2 12.8,-0.6 8.2,2.5 18.2,3 24.3,1.1 9.2,-2.7 17.4,-13.6 17.4,-22.9 -0.1,-10.9 -6.8,-18.5 -24,-27.2 -9.4,-4.8 -19.5,-11.7 -21.5,-14.7 -4.2,-6.4 -2,-14.000004 5.1,-18.100004 12.4,-7.1 28.8,2.7 31.8,18.900004 1.5,8.2 2.6,3.4 2.6,-11.2 0,-8.300004 -0.4,-15.000004 -0.8,-15.000004 -0.5,0 -1.4,1.1 -2,2.5 -0.6,1.4 -1.8,2.5 -2.7,2.5 -0.8,0 -4.8,-1.1 -8.9,-2.5 -8.9,-3 -15.3,-3.1 -22.3,-0.4 z"
       id="path48"
       style="fill:#fafafa;fill-opacity:1;stroke:#ffffff;stroke-width:0.09975;stroke-miterlimit:4;stroke-dasharray:none;stroke-opacity:1" />
    <path
       d="m 690.87095,88.807756 c -13.3,3.7 -24.5,14.500004 -30,28.700004 -2.5,6.4 -3,9.2 -3,16.4 0,10.8 2,17.8 7.4,25.7 7.7,11.3 17.3,16.7 33.3,18.8 10.5,1.4 22.8,-0.4 31.8,-4.5 l 5.5,-2.5 v -14.8 c 0.1,-20.7 1.5,-25.3 7.7,-25.3 1.3,0 2.3,-0.5 2.3,-1 0,-0.6 -6.2,-1 -16.5,-1 -10.3,0 -16.5,0.4 -16.5,1 0,0.5 1.4,1 3,1 1.9,0 4,0.9 5.5,2.5 2.5,2.4 2.5,2.7 2.5,19.3 v 17 l -3.6,1.7 c -4.9,2.3 -13.4,3.4 -19.5,2.4 -17.1,-2.7 -28.9,-20 -28.9,-42.4 0,-17.7 7.3,-31.6 19.6,-37.500004 3.8,-1.8 6.6,-2.3 12.9,-2.4 13.3,-0.1 21.2,4.8 26.9,16.600004 1.8,3.8 3.6,6.6 3.9,6.1 0.2,-0.4 0.1,-5.5 -0.4,-11.3 -0.4,-5.800004 -0.8,-11.700004 -0.8,-13.300004 -0.1,-2.6 -2.1,-4 -2.1,-1.4 0,0.7 -0.6,2.1 -1.3,3.2 -1.3,1.7 -1.7,1.7 -9.3,-1 -9.9,-3.4 -22.3,-4.2 -30.4,-2 z"
       id="path50"
       style="fill:#fafafa;fill-opacity:1;stroke:none;stroke-width:0.09975;stroke-miterlimit:4;stroke-dasharray:none;stroke-opacity:1" />
    <path
       d="m 264.87095,90.207756 c 0,0.4 1.9,1.1 4.2,1.4 8,1.1 7.8,0 7.8,41.800004 0,41.7 0.3,40 -7.9,41.4 -2.3,0.4 -4.1,1.1 -4.1,1.6 0,0.6 13.5,0.8 33.6,0.7 l 33.7,-0.3 3.7,-10.8 c 2.2,-6.3 3.3,-10.7 2.6,-10.7 -0.6,0 -3,2.9 -5.3,6.4 -6.2,9.4 -9.2,10.6 -27,10.6 -11.8,0 -14.3,-0.3 -15.4,-1.7 -1,-1.2 -1.5,-6.2 -1.7,-19.5 l -0.4,-17.8 h 12.9 c 16.4,0 18.9,1.3 20.8,10.2 0.3,1.6 1,2.8 1.5,2.8 0.6,0 1,-5.9 1,-15 0,-8.3 -0.4,-15 -0.8,-15 -0.5,0 -1.5,2.1 -2.3,4.7 -2.2,7.2 -5.2,8.4 -20.4,8.1 l -12,-0.3 -0.3,-17.3 -0.2,-17.200004 h 16.8 c 19.6,0 20.9,0.5 23.7,9.000004 0.9,2.8 2.1,5 2.6,5 1.1,0 1.1,-3 0.2,-12.300004 l -0.6,-6.7 h -33.3 c -18.4,0 -33.4,0.4 -33.4,0.9 z"
       id="path52"
       style="fill:#fafafa;fill-opacity:1;stroke:#ffffff;stroke-width:0.09975;stroke-miterlimit:4;stroke-dasharray:none;stroke-opacity:1" />
    <path
       d="m 340.87095,90.307756 c 0,0.5 1,1 2.3,1 3.4,0.1 9.9,3.4 13,6.7 l 2.8,3.000004 -0.3,34.7 c -0.3,34.7 -0.3,34.8 -2.6,36.6 -1.2,1 -4,2.1 -6.2,2.5 -8.3,1.4 -3.5,2.5 11,2.5 14.5,0 19.3,-1.1 11,-2.5 -2.5,-0.4 -4.7,-1.6 -6,-3.2 -1.9,-2.4 -2,-4 -2,-33.2 l 0.1,-30.6 2.7,3.4 c 1.5,1.9 6.3,7.8 10.7,13 4.4,5.3 16.3,19.6 26.4,31.8 10,12.3 18.7,22.3 19.1,22.3 0.5,0 1,-18.5 1.2,-41.1 l 0.3,-41.100004 2.8,-2.4 c 1.6,-1.4 4.1,-2.4 5.8,-2.4 1.6,0 2.9,-0.5 2.9,-1 0,-0.6 -5.7,-1 -15,-1 -9.3,0 -15,0.4 -15,1 0,0.5 1.2,1 2.6,1 4.7,0 9.1,2.8 9.8,6.2 0.3,1.7 0.6,15.200004 0.6,30.200004 v 27.1 l -2.4,-2.5 c -1.4,-1.4 -6,-6.9 -10.3,-12.2 -4.3,-5.3 -15.4,-18.9 -24.7,-30.2 l -17,-20.600004 h -11.8 c -7.2,0 -11.8,0.4 -11.8,1 z"
       id="path54"
       style="fill:#fafafa;fill-opacity:1;stroke:#ffffff;stroke-width:0.09975;stroke-miterlimit:4;stroke-dasharray:none;stroke-opacity:1" />
    <path
       d="m 515.87095,90.207756 c 0,0.4 1.9,1.1 4.1,1.4 2.3,0.3 5.1,1.5 6.3,2.7 2.1,2 2.1,2.8 2.1,39.100004 v 37.1 l -2.3,1.8 c -1.2,1 -4,2.1 -6.2,2.5 -8.9,1.5 -3.1,2.5 14.5,2.5 17.5,0 23.1,-0.9 14.8,-2.5 -2.1,-0.4 -4.8,-1.6 -6,-2.8 l -2.3,-2 v -36.3 c 0,-19.9 0.3,-37.000004 0.6,-37.900004 0.8,-2 5.6,-4.5 8.9,-4.5 1.4,0 2.5,-0.5 2.5,-1 0,-0.6 -6.8,-1 -18.5,-1 -10.2,0 -18.5,0.4 -18.5,0.9 z"
       id="path56"
       style="fill:#fafafa;fill-opacity:1;stroke:#ffffff;stroke-width:0.09975;stroke-miterlimit:4;stroke-dasharray:none;stroke-opacity:1" />
    <path
       d="m 554.87095,90.307756 c 0,0.5 1,1 2.3,1 3.5,0.1 10.2,3.5 12.5,6.5 2.2,2.700004 2.2,3.400004 2.2,37.600004 0,39.4 0.3,38 -7.9,39.4 -8.4,1.4 -3.7,2.5 10.9,2.5 14.6,0 19.3,-1.1 10.9,-2.5 -8.1,-1.4 -7.9,-0.4 -7.9,-35.7 0,-17.1 0.2,-30.9 0.4,-30.7 2,2.2 34,41.1 44.1,53.7 7.2,8.9 13.6,16.2 14.3,16.2 0.9,0 1.2,-8.6 1.2,-39.8 0,-21.8 0.3,-40.700004 0.6,-42.000004 0.8,-2.7 5.2,-5.2 9.4,-5.2 1.6,0 3,-0.5 3,-1 0,-0.6 -5.8,-1 -15.5,-1 -14.7,0 -20.2,1.1 -11.4,2.3 2.2,0.3 4.9,1.3 5.9,2.2 2.6,2.4 3.3,12.400004 2.4,38.100004 l -0.7,22.3 -7.6,-9.2 c -4.2,-5.1 -16.1,-19.7 -26.5,-32.5 l -18.9,-23.200004 h -11.9 c -7.2,0 -11.8,0.4 -11.8,1 z"
       id="path58"
       style="fill:#fafafa;fill-opacity:1;stroke:#ffffff;stroke-width:0.09975;stroke-miterlimit:4;stroke-dasharray:none;stroke-opacity:1" />
    <path
       d="m 784.87095,90.207756 c 0,0.4 1.8,1.1 4.1,1.4 8.3,1.1 7.9,-0.8 7.9,41.100004 0,42.1 0.2,40.9 -7.5,42 -2.5,0.4 -4.5,1.1 -4.5,1.7 0,0.5 7.6,0.9 18.5,0.9 17.6,0 23.4,-1 14.6,-2.5 -2.1,-0.3 -4.8,-1.5 -6,-2.6 -2.1,-1.9 -2.1,-2.6 -2.1,-38.8 0,-41.800004 -0.2,-40.700004 7.8,-41.800004 9.5,-1.3 3.1,-2.3 -14.3,-2.3 -10.2,0 -18.5,0.4 -18.5,0.9 z"
       id="path60"
       style="fill:#fafafa;fill-opacity:1;stroke:#ffffff;stroke-width:0.09975;stroke-miterlimit:4;stroke-dasharray:none;stroke-opacity:1" />
    <path
       d="m 835.37095,119.80776 c -8.9,3.7 -10.7,5.6 -4.9,5.2 5.9,-0.3 6.4,1.5 6.4,23.6 0,21.6 -0.8,25.1 -5.9,26.2 -6.9,1.5 -2.4,2.5 11.4,2.5 14.3,0 18.1,-1 10.8,-2.7 -5.8,-1.4 -6.3,-3.2 -6.3,-24.5 v -18.8 l 5.4,-3.5 c 4.6,-3.1 6,-3.6 10.1,-3.3 3.9,0.2 5.2,0.8 6.9,3.1 1.9,2.6 2.1,4.4 2.4,22.3 0.4,22.1 0,23.7 -6.2,24.8 -7.8,1.5 -3.1,2.6 10.9,2.6 9.2,0 14.5,-0.4 14.5,-1 0,-0.6 -1.3,-1.3 -3,-1.6 -5.3,-1.1 -5.5,-1.9 -6,-25.8 -0.5,-21.5 -0.6,-22.2 -3,-25.8 -6.1,-9.1 -16.3,-9 -26.5,0.3 l -5.5,5.1 v -6.1 c 0,-7.3 -0.1,-7.3 -11.5,-2.6 z"
       id="path62"
       style="fill:#fafafa;fill-opacity:1;stroke:#ffffff;stroke-width:0.09975;stroke-miterlimit:4;stroke-dasharray:none;stroke-opacity:1" />
    <path
       d="m 916.57095,117.70776 c -13.5,4.8 -20.5,16.8 -19.5,33 0.6,8.7 3.6,16 8.6,20.9 12,11.7 29.3,8.2 37.1,-7.4 4.6,-9.3 3.9,-14.3 -0.8,-5.5 -5.5,10.5 -19.3,13.5 -26.7,5.8 -3.9,-4 -7.5,-12.6 -8.1,-19.1 -1.2,-12.8 4.8,-23.7 13.5,-24.8 6.2,-0.8 8.9,1 10.7,7 1.9,6.5 3.1,7.7 7.1,7.7 7.1,0 7.9,-7.5 1.4,-13.4 -6,-5.4 -15.2,-7.1 -23.3,-4.2 z"
       id="path64"
       style="fill:#fafafa;fill-opacity:1;stroke:#ffffff;stroke-width:0.09975;stroke-miterlimit:4;stroke-dasharray:none;stroke-opacity:1" />
    <path
       d="m 963.47095,166.40776 c -5.1,4 -2.4,12.1 4,12.1 6.6,0 9.3,-9.7 3.4,-12.7 -3.8,-1.9 -4.2,-1.9 -7.4,0.6 z"
       id="path66"
       style="fill:#fafafa;fill-opacity:1;stroke:#ffffff;stroke-width:0.09975;stroke-miterlimit:4;stroke-dasharray:none;stroke-opacity:1" />
  </g>
</svg>
